HIERARCHY
ROOT hip
{
  OFFSET 0 0 0
  CHANNELS 6 Xposition Yposition Zposition Zrotation Yrotation Xrotation
  JOINT abdomen
  {
    OFFSET 0 20.6881 -0.73152
    CHANNELS 3 Zrotation Xrotation Yrotation
    JOINT chest
    {
      OFFSET 0 11.7043 -0.48768
      CHANNELS 3 Zrotation Xrotation Yrotation
      JOINT neck
      {
        OFFSET 0 22.1894 -2.19456
        CHANNELS 3 Zrotation Xrotation Yrotation
        JOINT head
        {
          OFFSET -0.24384 7.07133 1.2192
          CHANNELS 3 Zrotation Xrotation Yrotation
          JOINT leftEye
          {
            OFFSET 4.14528 8.04674 8.04672
            CHANNELS 3 Zrotation Xrotation Yrotation
            End Site
            {
              OFFSET 1 0 0
            }
          }
          JOINT rightEye
          {
            OFFSET -3.6576 8.04674 8.04672
            CHANNELS 3 Zrotation Xrotation Yrotation
            End Site
            {
              OFFSET 1 0 0
            }
          }
        }
      }
      JOINT rCollar
      {
        OFFSET -2.68224 19.2634 -4.8768
        CHANNELS 3 Zrotation Xrotation Yrotation
        JOINT rShldr
        {
          OFFSET -8.77824 -1.95073 1.46304
          CHANNELS 3 Zrotation Xrotation Yrotation
          JOINT rForeArm
          {
            OFFSET -28.1742 -1.7115 0.48768
            CHANNELS 3 Zrotation Xrotation Yrotation
            JOINT rHand
            {
              OFFSET -22.5879 0.773209 7.07136
              CHANNELS 3 Zrotation Xrotation Yrotation
              JOINT rThumb1
              {
                OFFSET -1.2192 -0.487915 3.41376
                CHANNELS 3 Zrotation Xrotation Yrotation
                JOINT rThumb2
                {
                  OFFSET -3.37035 -0.52449 3.41376
                  CHANNELS 3 Zrotation Xrotation Yrotation
                  End Site
                  {
                    OFFSET -1.78271 -1.18214 1.43049
                  }
                }
              }
              JOINT rIndex1
              {
                OFFSET -7.75947 0.938293 5.60832
                CHANNELS 3 Zrotation Xrotation Yrotation
                JOINT rIndex2
                {
                  OFFSET -2.54057 -0.884171 1.56538
                  CHANNELS 3 Zrotation Xrotation Yrotation
                  End Site
                  {
                    OFFSET -1.62519 -0.234802 1.16502
                  }
                }
              }
              JOINT rMid1
              {
                OFFSET -8.24714 1.18213 3.41376
                CHANNELS 3 Zrotation Xrotation Yrotation
                JOINT rMid2
                {
                  OFFSET -3.10165 -0.590103 1.0647
                  CHANNELS 3 Zrotation Xrotation Yrotation
                  End Site
                  {
                    OFFSET -2.48547 -0.328903 0.83742
                  }
                }
              }
              JOINT rRing1
              {
                OFFSET -8.82822 0.546677 1.51678
                CHANNELS 3 Zrotation Xrotation Yrotation
                JOINT rRing2
                {
                  OFFSET -2.60934 -0.819778 -0.0198488
                  CHANNELS 3 Zrotation Xrotation Yrotation
                  End Site
                  {
                    OFFSET -2.33842 -0.294052 0.168128
                  }
                }
              }
              JOINT rPinky1
              {
                OFFSET -8.27202 -0.0477905 -0.4584
                CHANNELS 3 Zrotation Xrotation Yrotation
                JOINT rPinky2
                {
                  OFFSET -1.82734 -0.647385 -0.700984
                  CHANNELS 3 Zrotation Xrotation Yrotation
                  End Site
                  {
                    OFFSET -1.69225 -0.51767 -0.607171
                  }
                }
              }
            }
          }
        }
      }
      JOINT lCollar
      {
        OFFSET 2.68224 19.2634 -4.8768
        CHANNELS 3 Zrotation Xrotation Yrotation
        JOINT lShldr
        {
          OFFSET 8.77824 -1.95073 1.46304
          CHANNELS 3 Zrotation Xrotation Yrotation
          JOINT lForeArm
          {
            OFFSET 28.1742 -1.7115 0.48768
            CHANNELS 3 Zrotation Xrotation Yrotation
            JOINT lHand
            {
              OFFSET 22.5879 0.773209 7.07136
              CHANNELS 3 Zrotation Xrotation Yrotation
              JOINT lThumb1
              {
                OFFSET 1.2192 -0.487915 3.41376
                CHANNELS 3 Zrotation Xrotation Yrotation
                JOINT lThumb2
                {
                  OFFSET 3.37035 -0.52449 3.41376
                  CHANNELS 3 Zrotation Xrotation Yrotation
                  End Site
                  {
                    OFFSET 1.78271 -1.18214 1.43049
                  }
                }
              }
              JOINT lIndex1
              {
                OFFSET 7.75947 0.938293 5.60832
                CHANNELS 3 Zrotation Xrotation Yrotation
                JOINT lIndex2
                {
                  OFFSET 2.54057 -0.884171 1.56538
                  CHANNELS 3 Zrotation Xrotation Yrotation
                  End Site
                  {
                    OFFSET 1.62519 -0.234802 1.16502
                  }
                }
              }
              JOINT lMid1
              {
                OFFSET 8.24714 1.18213 3.41376
                CHANNELS 3 Zrotation Xrotation Yrotation
                JOINT lMid2
                {
                  OFFSET 3.10165 -0.590103 1.0647
                  CHANNELS 3 Zrotation Xrotation Yrotation
                  End Site
                  {
                    OFFSET 2.48547 -0.328903 0.83742
                  }
                }
              }
              JOINT lRing1
              {
                OFFSET 8.82822 0.546677 1.51678
                CHANNELS 3 Zrotation Xrotation Yrotation
                JOINT lRing2
                {
                  OFFSET 2.60934 -0.819778 -0.0198488
                  CHANNELS 3 Zrotation Xrotation Yrotation
                  End Site
                  {
                    OFFSET 2.33842 -0.294052 0.168128
                  }
                }
              }
              JOINT lPinky1
              {
                OFFSET 8.27202 -0.0477905 -0.4584
                CHANNELS 3 Zrotation Xrotation Yrotation
                JOINT lPinky2
                {
                  OFFSET 1.82734 -0.647385 -0.700984
                  CHANNELS 3 Zrotation Xrotation Yrotation
                  End Site
                  {
                    OFFSET 1.69225 -0.51767 -0.607171
                  }
                }
              }
            }
          }
        }
      }
    }
  }
  JOINT rButtock
  {
    OFFSET -8.77824 4.35084 1.2192
    CHANNELS 3 Zrotation Xrotation Yrotation
    JOINT rThigh
    {
      OFFSET 0 -1.70687 -2.19456
      CHANNELS 3 Zrotation Xrotation Yrotation
      JOINT rShin
      {
        OFFSET 0 -36.8199 0.73152
        CHANNELS 3 Zrotation Xrotation Yrotation
        JOINT rFoot
        {
          OFFSET 0.73152 -45.1104 -5.12064
          CHANNELS 3 Zrotation Xrotation Yrotation
          End Site
          {
            OFFSET -1.1221 -3.69964 12.103
          }
        }
      }
    }
  }
  JOINT lButtock
  {
    OFFSET 8.77824 4.35084 1.2192
    CHANNELS 3 Zrotation Xrotation Yrotation
    JOINT lThigh
    {
      OFFSET 0 -1.70687 -2.19456
      CHANNELS 3 Zrotation Xrotation Yrotation
      JOINT lShin
      {
        OFFSET 0 -36.8199 0.73152
        CHANNELS 3 Zrotation Xrotation Yrotation
        JOINT lFoot
        {
          OFFSET -0.73152 -45.1104 -5.12064
          CHANNELS 3 Zrotation Xrotation Yrotation
          End Site
          {
            OFFSET 1.1221 -3.69964 12.103
          }
        }
      }
    }
  }
}
MOTION
Frames:	4
Frame Time:	0.03333
0.046570000674452244 54.26550120100905 0.07830000131445018 -15.20930004119873 -34.11470413208008 15.182400703430176 6.579329967498779 9.013931274414062 4.964959621429443 1.9283796548843384 -7.832301139831543 1.4125198125839233 0.07889720797538757 12.308698654174805 7.817350387573242 4.724140167236328 -25.609397888183594 16.61720085144043 -0.0 0.0 -0.0 -0.0 0.0 -0.0 1.0284399606886804e-13 4.0566199488098476e-13 2.0961100151602186e-13 108.23199462890625 46.26599884033203 -57.49549865722656 -27.102100372314453 -43.73619842529297 90.92249298095703 -11.194100379943848 -64.955810546875 -17.504798889160156 -4.3664497018092163e-10 1.1188899806668928e-09 3.795569969433643e-10 -7.704939464225902e-10 1.9190899980259246e-09 6.323300216770633e-10 -4.366429717794773e-10 1.1188899806668928e-09 3.795439795784006e-10 7.730909824371338 5.474879741668701 0.4173140823841095 -4.366539629874211e-10 1.1188999726741145e-09 3.7955799614408647e-10 2.9055399894714355 0.9651829600334167 0.10290199518203735 -4.366369488195687e-10 1.1188899806668928e-09 3.795519731841779e-10 10.27859878540039 0.73180091381073 0.025912316516041756 -4.366439987357751e-10 1.1188899806668928e-09 3.795569969433643e-10 2.221669912338257 -0.733487069606781 -0.208919957280159 1.0277899814862754e-13 4.0565299600295313e-13 2.0942500663333197e-13 -77.96449279785156 -28.573305130004883 -89.59969329833984 6.155799865722656 -2.111330032348633 -10.764200210571289 24.53099822998047 75.00080108642578 -31.63729476928711 2.174070035110276e-09 -8.807169216140665e-09 4.379150098099416e-10 3.7392600127361675e-09 -1.433309915199743e-08 6.205049807306295e-10 2.174070035110276e-09 -8.807169216140665e-09 4.379249740615876e-10 -7.730909824371338 5.474879741668701 -0.4173140823841095 2.174070035110276e-09 -8.807159446178048e-09 4.379189788572546e-10 -2.9055399894714355 0.9651829600334167 -0.10290199518203735 2.174070035110276e-09 -8.807159446178048e-09 4.379150098099416e-10 -10.27859878540039 0.73180091381073 -0.025912316516041756 2.174070035110276e-09 -8.807159446178048e-09 4.3790801540488644e-10 -2.221669912338257 -0.733487069606781 0.208919957280159 -2.0321699480147914e-16 0.0 -3.8825099822884138e-19 -11.730199813842773 4.666480541229248 -8.275009155273438 -0.03563719987869263 37.43649673461914 2.2894999980926514 -9.271010398864746 -18.131601333618164 -30.944997787475586 2.0321699480147914e-16 0.0 3.8825099822884138e-19 72.3731918334961 -56.113800048828125 61.40650177001953 2.175719738006592 69.69771575927734 -2.096519708633423 -0.28067800402641296 4.061790466308594 -0.8447380661964417
0.11348999969716204 54.1631986276206 0.16180000440288828 -15.17300033569336 -34.11009979248047 15.192903518676758 6.582399845123291 9.00767993927002 4.940890312194824 1.9448297023773193 -7.845610618591309 1.405429720878601 0.08651860058307648 12.339099884033203 7.829139232635498 4.66901969909668 -25.693401336669922 16.63299560546875 -0.0 0.0 -0.0 -0.0 0.0 -0.0 1.7732398936796262e-13 3.0481002379241506e-13 -3.7279898677626544e-14 108.30400085449219 46.1781005859375 -57.56979751586914 -27.118698120117188 -43.68930435180664 90.8302993774414 -11.32800006866455 -65.1343002319336 -17.652498245239258 -7.471430141237079e-10 8.487539560064761e-10 6.851570092530901e-12 -1.2855699837999168e-09 1.3842498258753722e-09 -2.8620699560333307e-11 -7.471430141237079e-10 8.487559544079204e-10 6.8385900241219044e-12 7.730909824371338 5.474879741668701 0.4173140823841095 -7.471520069302073e-10 8.487679448165864e-10 6.854450167181891e-12 2.9055399894714355 0.9651829600334167 0.10290199518203735 -7.471359642075015e-10 8.487590630323893e-10 6.846759270651148e-12 10.27859878540039 0.73180091381073 0.025912316516041756 -7.471430141237079e-10 8.487610059226824e-10 6.852089642211956e-12 2.221669912338257 -0.733487069606781 -0.208919957280159 1.7732099425946113e-13 3.048009978093291e-13 -3.7492297271348243e-14 -78.2072982788086 -28.58980369567871 -89.61119842529297 6.138329029083252 -2.1041998863220215 -10.732999801635742 25.18689727783203 75.27059936523438 -32.31589889526367 1.8687500158431902e-10 -4.127629793515553e-09 5.310629713761728e-10 3.5847999568794364e-10 -7.103839738675788e-09 9.134170642077777e-10 1.8687200398215253e-10 -4.127620023552936e-09 5.310699657812279e-10 -7.730909824371338 5.474879741668701 -0.4173140823841095 1.8687400238359686e-10 -4.127599595449283e-09 5.310650252887683e-10 -2.9055399894714355 0.9651829600334167 -0.10290199518203735 1.8687099090364256e-10 -4.127620023552936e-09 5.310629713761728e-10 -10.27859878540039 0.73180091381073 -0.025912316516041756 1.8687600078504119e-10 -4.127620023552936e-09 5.310559769711176e-10 -2.221669912338257 -0.733487069606781 0.208919957280159 -2.0321699480147914e-16 0.0 -3.8825099822884138e-19 -11.927299499511719 4.678130149841309 -8.40386962890625 -0.03478469327092171 37.5010986328125 2.3013298511505127 -9.254969596862793 -18.193899154663086 -30.857501983642578 2.0321699480147914e-16 0.0 3.8825099822884138e-19 72.6427001953125 -56.15340042114258 61.77649688720703 2.218860149383545 69.97052764892578 -2.137009859085083 -0.28206998109817505 3.935800790786743 -0.8852309584617615
0.18742000062391312 54.0778998101709 0.24510000434458531 -15.050799369812012 -34.15469741821289 15.14590072631836 6.496860027313232 9.006741523742676 4.942739009857178 1.9541699886322021 -7.849239826202393 1.4030898809432983 0.08379241079092026 12.353100776672363 7.834939479827881 4.63670015335083 -25.73309898376465 16.639896392822266 -0.0 0.0 -0.0 -0.0 0.0 -0.0 1.1374398872863317e-13 -1.0286000160343936e-13 -4.237509865570588e-13 108.32300567626953 46.09770202636719 -57.5343017578125 -27.132997512817383 -43.64889907836914 90.75080108642578 -11.527697563171387 -65.39521026611328 -17.872400283813477 8.045979438264794e-10 -2.5615798371347864e-09 -1.011559946917373e-09 1.4324399444376468e-09 -4.428789779353792e-09 -1.6996398732871398e-09 8.045999422279237e-10 -2.561589829142008e-09 -1.0115799309318163e-09 7.730909824371338 5.474879741668701 0.4173140823841095 8.045950017354642e-10 -2.5615798371347864e-09 -1.011559946917373e-09 2.9055399894714355 0.9651829600334167 0.10290199518203735 8.046039945419636e-10 -2.5615798371347864e-09 -1.011559946917373e-09 10.27859878540039 0.73180091381073 0.025912316516041756 8.04594002534742e-10 -2.5615798371347864e-09 -1.011559946917373e-09 2.221669912338257 -0.733487069606781 -0.208919957280159 1.1367699181063715e-13 -1.0286998981595338e-13 -4.2399097470793845e-13 -78.4107894897461 -28.627099990844727 -89.61019134521484 6.115649700164795 -2.097180128097534 -10.692998886108398 26.171302795410156 75.6537094116211 -33.33279800415039 -4.0073295792808494e-09 4.3596597443240626e-09 1.1120598886193989e-09 -6.76346001426964e-09 5.673579384080085e-09 2.162459988852561e-09 -4.0073295792808494e-09 4.359680172427716e-09 1.1120598886193989e-09 -7.730909824371338 5.474879741668701 -0.4173140823841095 -4.0073295792808494e-09 4.359689942390332e-09 1.1120598886193989e-09 -2.9055399894714355 0.9651829600334167 -0.10290199518203735 -4.0073295792808494e-09 4.3596597443240626e-09 1.1120598886193989e-09 -10.27859878540039 0.73180091381073 -0.025912316516041756 -4.0073295792808494e-09 4.359669958375889e-09 1.1120500076344797e-09 -2.221669912338257 -0.733487069606781 0.208919957280159 -2.0321699480147914e-16 0.0 -3.8825099822884138e-19 -12.230399131774902 4.61292028427124 -8.55813980102539 -0.03525669500231743 37.654701232910156 2.315009593963623 -9.24010944366455 -18.268898010253906 -30.74989891052246 2.0321699480147914e-16 0.0 3.8825099822884138e-19 72.71189880371094 -56.19000244140625 62.01529312133789 2.252969980239868 70.18119049072266 -2.1692099571228027 -0.2878990173339844 3.796050786972046 -0.8875730633735657
0.2546199973819538 54.002699427409055 0.3264000061694049 -14.875499725341797 -34.24839782714844 15.045401573181152 6.350679397583008 9.030029296875 4.964270114898682 1.9909898042678833 -7.844411373138428 1.4079798460006714 0.08988549560308456 12.362700462341309 7.82919979095459 4.626180648803711 -25.737701416015625 16.625499725341797 -0.0 0.0 -0.0 -0.0 0.0 -0.0 1.012510049218894e-13 -2.2885998109643813e-13 -7.697889634755706e-13 108.31399536132812 46.06109619140625 -57.466697692871094 -27.147396087646484 -43.607704162597656 90.66999816894531 -11.588799476623535 -65.47359466552734 -17.939598083496094 2.200799986695756e-09 -5.265919700292443e-09 -1.7198300561460655e-09 3.866510223105024e-09 -9.012628865434635e-09 -2.8459801182378897e-09 2.2008099787029778e-09 -5.2659299143442695e-09 -1.7198499291382063e-09 7.730909824371338 5.474879741668701 0.4173140823841095 2.200799986695756e-09 -5.2659299143442695e-09 -1.7198399371309847e-09 2.9055399894714355 0.9651829600334167 0.10290199518203735 2.2008099787029778e-09 -5.2659299143442695e-09 -1.7198300561460655e-09 10.27859878540039 0.73180091381073 0.025912316516041756 2.200799986695756e-09 -5.265919700292443e-09 -1.7198300561460655e-09 2.221669912338257 -0.733487069606781 -0.208919957280159 1.0115400270876984e-13 -2.2886700130550497e-13 -7.700400104886096e-13 -78.47459411621094 -28.65829849243164 -89.55139923095703 6.095779895782471 -2.090940237045288 -10.658000946044922 26.731300354003906 75.860595703125 -33.91059875488281 -6.145270070589959e-09 4.039490075768981e-09 2.1752599721480692e-09 -1.0344499479231217e-08 4.084919957847433e-09 4.11184997162195e-09 -6.145270070589959e-09 4.039519829746041e-09 2.1752599721480692e-09 -7.730909824371338 5.474879741668701 -0.4173140823841095 -6.145270070589959e-09 4.039510059783424e-09 2.1752599721480692e-09 -2.9055399894714355 0.9651829600334167 -0.10290199518203735 -6.145270070589959e-09 4.039490075768981e-09 2.1752599721480692e-09 -10.27859878540039 0.73180091381073 -0.025912316516041756 -6.145270070589959e-09 4.039490075768981e-09 2.1752497580962427e-09 -2.221669912338257 -0.733487069606781 0.208919957280159 -2.0321699480147914e-16 0.0 -3.8825099822884138e-19 -12.53210163116455 4.57420015335083 -8.592450141906738 -0.03557869419455528 37.77399444580078 2.326050043106079 -9.236909866333008 -18.318700790405273 -30.699600219726562 2.0321699480147914e-16 0.0 3.8825099822884138e-19 72.68649291992188 -56.202205657958984 62.173797607421875 2.2848198413848877 70.37661743164062 -2.2007999420166016 -0.29366201162338257 3.674180269241333 -0.8598059415817261
